<svg xmlns="http://www.w3.org/2000/svg" viewBox="0 0 800 600">
  <!-- Background with slight grid for technical feel -->
  <defs>
    <pattern id="grid" width="20" height="20" patternUnits="userSpaceOnUse">
      <path d="M 20 0 L 0 0 0 20" fill="none" stroke="#f0f0f0" stroke-width="1"/>
    </pattern>
  </defs>
  <rect width="800" height="600" fill="url(#grid)"/>

  <!-- Toroidal Reactor (Tokamak) -->
  <ellipse cx="400" cy="300" rx="200" ry="200" fill="none" stroke="#666" stroke-width="3"/>
  <ellipse cx="400" cy="300" rx="150" ry="150" fill="none" stroke="#666" stroke-width="3"/>

  <!-- Magnetic Field Coils -->
  <g id="magnetic-coils">
    <!-- 8 coils around the torus -->
    <g transform="translate(400 300)">
      <g id="coil" fill="#4a90e2" stroke="#2171cd">
        <rect x="-220" y="-15" width="30" height="30" transform="rotate(0)"/>
        <rect x="-220" y="-15" width="30" height="30" transform="rotate(45)"/>
        <rect x="-220" y="-15" width="30" height="30" transform="rotate(90)"/>
        <rect x="-220" y="-15" width="30" height="30" transform="rotate(135)"/>
        <rect x="-220" y="-15" width="30" height="30" transform="rotate(180)"/>
        <rect x="-220" y="-15" width="30" height="30" transform="rotate(225)"/>
        <rect x="-220" y="-15" width="30" height="30" transform="rotate(270)"/>
        <rect x="-220" y="-15" width="30" height="30" transform="rotate(315)"/>
      </g>
    </g>
  </g>

  <!-- Plasma (wavy lines) -->
  <path d="M 250,300 Q 325,250 400,300 T 550,300" 
        fill="none" stroke="#ff6b6b" stroke-width="3" opacity="0.6">
    <animate attributeName="d" 
             dur="3s"
             values="M 250,300 Q 325,250 400,300 T 550,300;
                     M 250,300 Q 325,350 400,300 T 550,300;
                     M 250,300 Q 325,250 400,300 T 550,300"
             repeatCount="indefinite"/>
  </path>

  <!-- Plasma Instability Sensors -->
  <g id="sensors">
    <circle cx="300" cy="200" r="8" fill="#ffd700"/>
    <circle cx="500" cy="200" r="8" fill="#ffd700"/>
    <circle cx="300" cy="400" r="8" fill="#ffd700"/>
    <circle cx="500" cy="400" r="8" fill="#ffd700"/>
  </g>

  <!-- AI Controller -->
  <g transform="translate(650, 100)">
    <rect x="0" y="0" width="100" height="80" fill="#2ecc71" stroke="#27ae60" stroke-width="2"/>
    <text x="50" y="45" text-anchor="middle" fill="white" font-family="Arial" font-size="14">AI
    Controller</text>
  </g>

  <!-- Feedback Loops -->
  <g stroke="#666" stroke-width="2" fill="none" stroke-dasharray="5,5">
    <!-- Sensor to AI -->
    <path d="M 300,200 C 400,150 500,100 650,140"/>
    <path d="M 500,200 C 550,150 600,100 650,140"/>
    <path d="M 300,400 C 400,450 500,500 650,180"/>
    <path d="M 500,400 C 550,450 600,500 650,180"/>
    
    <!-- AI to Coils -->
    <path d="M 750,140 C 800,200 800,300 620,300"/>
    <animate attributeName="stroke-dashoffset" values="10;0" dur="1s" repeatCount="indefinite"/>
  </g>

  <!-- Legend -->
  <g transform="translate(20, 20)">
    <rect width="180" height="120" fill="white" stroke="#666"/>
    
    <!-- Legend Items -->
    <rect x="10" y="10" width="20" height="20" fill="#4a90e2"/>
    <text x="40" y="25" font-family="Arial" font-size="12">Magnetic Coils</text>
    
    <circle cx="20" cy="50" r="8" fill="#ffd700"/>
    <text x="40" y="55" font-family="Arial" font-size="12">Plasma Sensors</text>
    
    <rect x="10" y="70" width="20" height="20" fill="#2ecc71"/>
    <text x="40" y="85" font-family="Arial" font-size="12">AI Controller</text>
    
    <path d="M 10,100 L 30,100" stroke="#666" stroke-width="2" stroke-dasharray="5,5"/>
    <text x="40" y="105" font-family="Arial" font-size="12">Feedback Loops</text>
  </g>
</svg>
